<svg width="14" height="16" viewBox="0 0 14 16" fill="none" xmlns="http://www.w3.org/2000/svg">
<path d="M3.82353 2.41162H2.41176C2.03734 2.41162 1.67825 2.56036 1.4135 2.82512C1.14874 3.08987 1 3.44896 1 3.82339V12.294C1 12.6684 1.14874 13.0275 1.4135 13.2922C1.67825 13.557 2.03734 13.7057 2.41176 13.7057H6.43318" stroke="#0080DA" stroke-width="1.2" stroke-linecap="round" stroke-linejoin="round"/>
<path d="M10.8826 7.3528V3.82339C10.8826 3.44896 10.7339 3.08987 10.4691 2.82512C10.2044 2.56036 9.84527 2.41162 9.47085 2.41162H8.05908" stroke="#0080DA" stroke-width="1.2" stroke-linecap="round" stroke-linejoin="round"/>
<path d="M6.64677 1H5.23501C4.45531 1 3.82324 1.63207 3.82324 2.41176C3.82324 3.19146 4.45531 3.82353 5.23501 3.82353H6.64677C7.42647 3.82353 8.05854 3.19146 8.05854 2.41176C8.05854 1.63207 7.42647 1 6.64677 1Z" stroke="#0080DA" stroke-width="1.2" stroke-linecap="round" stroke-linejoin="round"/>
<path d="M3.82324 6.64697H6.64677" stroke="#0080DA" stroke-width="1.2" stroke-linecap="round" stroke-linejoin="round"/>
<path d="M3.82324 9.4707H5.94089" stroke="#0080DA" stroke-width="1.2" stroke-linecap="round" stroke-linejoin="round"/>
<path d="M9.82379 13.0001C10.7984 13.0001 11.5885 12.21 11.5885 11.2354C11.5885 10.2608 10.7984 9.4707 9.82379 9.4707C8.84917 9.4707 8.05908 10.2608 8.05908 11.2354C8.05908 12.21 8.84917 13.0001 9.82379 13.0001Z" stroke="#0080DA" stroke-width="1.2" stroke-linecap="round" stroke-linejoin="round"/>
<path d="M11.2354 12.647L13.0001 14.4117" stroke="#0080DA" stroke-width="1.2" stroke-linecap="round" stroke-linejoin="round"/>
</svg>
