<svg width="14" height="13" viewBox="0 0 14 13" fill="none" xmlns="http://www.w3.org/2000/svg">
<path d="M7.16992 8.52686C7.92716 8.52686 8.54102 7.913 8.54102 7.15576C8.54102 6.39853 7.92716 5.78467 7.16992 5.78467C6.41269 5.78467 5.79883 6.39853 5.79883 7.15576C5.79883 7.913 6.41269 8.52686 7.16992 8.52686Z" stroke="#307DC1" stroke-width="1.2" stroke-linecap="round" stroke-linejoin="round"/>
<path d="M8.16406 6.16172L9.56944 4.75635" stroke="#307DC1" stroke-width="1.2" stroke-linecap="round" stroke-linejoin="round"/>
<path d="M3.33086 11.9546C2.32869 11.158 1.59911 10.0695 1.24322 8.83978C0.887326 7.61007 0.922753 6.30011 1.34459 5.09144C1.76642 3.88277 2.55377 2.83523 3.59753 2.09401C4.64129 1.35279 5.88976 0.95459 7.16993 0.95459C8.4501 0.95459 9.69857 1.35279 10.7423 2.09401C11.7861 2.83523 12.5734 3.88277 12.9953 5.09144C13.4171 6.30011 13.4525 7.61007 13.0966 8.83978C12.7407 10.0695 12.0112 11.158 11.009 11.9546H3.33086Z" stroke="#307DC1" stroke-width="1.2" stroke-linecap="round" stroke-linejoin="round"/>
</svg>
