<svg width="944" height="364" viewBox="0 0 944 364" fill="none" xmlns="http://www.w3.org/2000/svg">
<g clip-path="url(#clip0_144_2394)">
<path d="M704.777 363.043L24.5836 362.09C22.4756 356.698 -48.3247 124.123 60.4351 49.6036C60.6445 49.4592 60.8539 49.3177 61.0661 49.1734C62.4951 48.2082 63.9184 47.2571 65.3417 46.3288C135.503 0.300181 195.734 -5.95792 245.773 4.1609H245.776C247.42 4.49206 249.056 4.84303 250.677 5.21099C324.417 21.8964 375.385 73.4132 402.682 81.8055C519.767 117.8 564.594 34.523 656.014 62.0462C759.248 93.1272 752.202 285.172 704.78 363.046L704.777 363.043Z" fill="#EBF3FA"/>
<path d="M245.773 4.16078C195.734 -5.95804 135.502 0.300061 65.3416 46.3286C63.9212 47.257 62.495 48.2081 61.0661 49.1732C60.8567 49.3176 60.6473 49.4591 60.4351 49.6035V151.261H245.776V4.16078H245.773Z" fill="#F5F9FD"/>
<path d="M228.801 58.8589V29.6261C228.583 29.5101 228.365 29.394 228.145 29.2751H223.923V29.261H199.364V29.2751H199.345V33.6595H199.364V36.6711H199.345V41.0526H199.364V44.0783H199.345V48.4599H199.364V48.474L196.764 48.4599V25.5361H169.206V28.4402H169.192V32.8217H169.206V36.6711H169.192V41.0526H169.206V44.0783H169.192V48.4599H169.206V51.2592H169.192V55.6407H169.206V58.4372H169.192V62.8215H169.206V65.4566H169.192V68.239H169.206V68.5418H138.142V93.6195H126.538V99.937H114.025V89.0568H91.5157V59.5014H87.9957V56.5549H87.4948V59.5014H84.5746V59.4957H69.9737V56.5549H69.4729V59.4957H65.6698V74.3584H65.3784L60.4633 74.3357V149.863H52.9902V156.583H245.773V58.8589H228.801Z" fill="#DFEBFA"/>
<path d="M186.849 25.5361H169.212V31.3753H186.849V25.5361Z" fill="#EEF6FF"/>
<path d="M186.849 34.5228H169.212V40.362H186.849V34.5228Z" fill="#EEF6FF"/>
<path d="M186.849 43.6962H169.212V49.5354H186.849V43.6962Z" fill="#EEF6FF"/>
<path d="M186.849 53.014H169.212V58.8532H186.849V53.014Z" fill="#EEF6FF"/>
<path d="M186.849 62.0063H169.212V67.8455H186.849V62.0063Z" fill="#EEF6FF"/>
<path d="M186.849 71.9044H169.212V77.7436H186.849V71.9044Z" fill="#EEF6FF"/>
<path d="M186.849 80.8882H169.212V86.7274H186.849V80.8882Z" fill="#EEF6FF"/>
<path d="M186.849 90.0616H169.212V95.9008H186.849V90.0616Z" fill="#EEF6FF"/>
<path d="M186.849 99.3823H169.212V105.222H186.849V99.3823Z" fill="#EEF6FF"/>
<path d="M186.849 108.375H169.212V114.214H186.849V108.375Z" fill="#EEF6FF"/>
<path d="M217.038 29.3657H199.401V35.2049H217.038V29.3657Z" fill="#EEF6FF"/>
<path d="M217.038 38.3495H199.401V44.1887H217.038V38.3495Z" fill="#EEF6FF"/>
<path d="M217.038 47.5229H199.401V53.3621H217.038V47.5229Z" fill="#EEF6FF"/>
<path d="M217.038 56.8436H199.401V62.6828H217.038V56.8436Z" fill="#EEF6FF"/>
<path d="M217.038 65.8359H199.401V71.6751H217.038V65.8359Z" fill="#EEF6FF"/>
<path d="M217.038 75.2103H199.401V81.0495H217.038V75.2103Z" fill="#EEF6FF"/>
<path d="M217.038 84.197H199.401V90.0362H217.038V84.197Z" fill="#EEF6FF"/>
<path d="M217.038 93.3704H199.401V99.2096H217.038V93.3704Z" fill="#EEF6FF"/>
<path d="M217.038 102.688H199.401V108.527H217.038V102.688Z" fill="#EEF6FF"/>
<path d="M217.038 111.681H199.401V117.52H217.038V111.681Z" fill="#EEF6FF"/>
<path d="M217.038 121.995H199.401V127.834H217.038V121.995Z" fill="#EEF6FF"/>
<path d="M217.038 130.981H199.401V136.821H217.038V130.981Z" fill="#EEF6FF"/>
<path d="M217.038 140.155H199.401V145.994H217.038V140.155Z" fill="#EEF6FF"/>
<path d="M217.038 149.473H199.401V155.312H217.038V149.473Z" fill="#EEF6FF"/>
<path d="M144.801 56.8436H143.926V68.7541H144.801V56.8436Z" fill="#DFEBFA"/>
<path d="M160.032 46.6145H158.671V69.6826H160.032V46.6145Z" fill="#DFEBFA"/>
<path d="M172.378 22.2585H171.939V25.5362H172.378V22.2585Z" fill="#DFEBFA"/>
<path d="M193.068 22.2585H192.63V25.5362H193.068V22.2585Z" fill="#DFEBFA"/>
<path d="M252.533 149.863H52.9819V156.583H252.533V149.863Z" fill="#CBDCF7"/>
<path d="M65.3388 46.3286V149.866H60.4351V49.6034C60.6445 49.4591 60.8567 49.3176 61.0661 49.1732C62.4922 48.2109 63.9183 47.2598 65.3388 46.3286Z" fill="#CBDCF7"/>
<path d="M245.776 4.16077C247.42 4.49193 249.056 4.8429 250.677 5.21086V149.866H245.773V4.16077H245.776Z" fill="#CBDCF7"/>
<path d="M825.072 362H2.92798C2.41547 362 2 362.385 2 362.859V363.141C2 363.615 2.41547 364 2.92798 364H825.072C825.585 364 826 363.615 826 363.141V362.859C826 362.385 825.585 362 825.072 362Z" fill="#2E3552"/>
<path d="M567.462 120H596.961C598.319 120 599.422 121.104 599.422 122.462V150.942C599.422 152.301 598.319 153.405 596.961 153.405H567.462C566.104 153.405 565 152.301 565 150.942V122.462C565 121.104 566.104 120 567.462 120Z" fill="#C0D8FB"/>
<path d="M568.741 121.449H595.685C596.927 121.449 597.934 122.457 597.934 123.699V149.711C597.934 150.954 596.927 151.961 595.685 151.961H568.741C567.499 151.961 566.491 150.954 566.491 149.711V123.699C566.491 122.457 567.499 121.449 568.741 121.449Z" fill="#DFEBFD"/>
<path d="M581.5 124.498C581.5 124.104 581.819 123.784 582.213 123.784C582.606 123.784 582.926 124.104 582.926 124.498C582.926 124.891 582.606 125.211 582.213 125.211C581.819 125.211 581.5 124.891 581.5 124.498Z" fill="#B7D3F3"/>
<path d="M587.252 125.505C587.445 125.16 587.877 125.038 588.223 125.228C588.568 125.42 588.69 125.853 588.5 126.199C588.308 126.544 587.875 126.666 587.529 126.476C587.184 126.284 587.06 125.851 587.252 125.505Z" fill="#B7D3F3"/>
<path d="M592.181 129.423C592.512 129.21 592.954 129.304 593.166 129.635C593.378 129.966 593.285 130.408 592.954 130.62C592.623 130.832 592.181 130.739 591.969 130.408C591.757 130.076 591.85 129.635 592.181 129.423Z" fill="#B7D3F3"/>
<path d="M594.623 135.485C595.017 135.485 595.336 135.805 595.336 136.199C595.336 136.592 595.017 136.912 594.623 136.912C594.23 136.912 593.91 136.592 593.91 136.199C593.91 135.805 594.23 135.485 594.623 135.485Z" fill="#B7D3F3"/>
<path d="M593.378 142.522C593.656 142.799 593.656 143.252 593.378 143.529C593.101 143.807 592.648 143.807 592.371 143.529C592.094 143.252 592.094 142.799 592.371 142.522C592.648 142.244 593.101 142.244 593.378 142.522Z" fill="#B7D3F3"/>
<path d="M588.899 147.014C589.176 147.291 589.176 147.744 588.899 148.021C588.622 148.299 588.169 148.299 587.892 148.021C587.614 147.744 587.614 147.291 587.892 147.014C588.169 146.736 588.622 146.736 588.899 147.014Z" fill="#B7D3F3"/>
<path d="M581.5 149.326C581.5 148.933 581.819 148.613 582.213 148.613C582.606 148.613 582.926 148.933 582.926 149.326C582.926 149.72 582.606 150.039 582.213 150.039C581.819 150.039 581.5 149.72 581.5 149.326Z" fill="#B7D3F3"/>
<path d="M577.148 125.505C576.955 125.16 576.522 125.038 576.177 125.228C575.832 125.42 575.71 125.853 575.9 126.199C576.092 126.544 576.525 126.666 576.87 126.476C577.216 126.284 577.337 125.851 577.148 125.505Z" fill="#B7D3F3"/>
<path d="M572.218 129.423C571.887 129.21 571.446 129.304 571.234 129.635C571.021 129.966 571.115 130.408 571.446 130.62C571.777 130.832 572.218 130.739 572.431 130.408C572.643 130.076 572.549 129.635 572.218 129.423Z" fill="#B7D3F3"/>
<path d="M569.777 135.485C569.383 135.485 569.063 135.805 569.063 136.199C569.063 136.592 569.383 136.912 569.777 136.912C570.17 136.912 570.49 136.592 570.49 136.199C570.49 135.805 570.17 135.485 569.777 135.485Z" fill="#B7D3F3"/>
<path d="M571.024 142.522C570.747 142.799 570.747 143.252 571.024 143.529C571.302 143.807 571.754 143.807 572.032 143.529C572.309 143.252 572.309 142.799 572.032 142.522C571.754 142.244 571.302 142.244 571.024 142.522Z" fill="#B7D3F3"/>
<path d="M575.504 147.014C575.227 147.291 575.227 147.744 575.504 148.021C575.781 148.299 576.234 148.299 576.511 148.021C576.789 147.744 576.789 147.291 576.511 147.014C576.234 146.736 575.781 146.736 575.504 147.014Z" fill="#B7D3F3"/>
<path d="M582.02 136.198C582.02 135.805 582.34 135.485 582.733 135.485C583.126 135.485 583.446 135.805 583.446 136.198C583.446 136.592 583.126 136.912 582.733 136.912C582.34 136.912 582.02 136.592 582.02 136.198Z" fill="#B7D3F3"/>
<path d="M582.832 127.288H582.637V136.199H582.832V127.288Z" fill="#B7D3F3"/>
<path d="M587.198 132.271L582.474 135.979L582.834 136.437L587.558 132.73L587.198 132.271Z" fill="#B7D3F3"/>
<path d="M355.558 271.275H207.97L143.321 207.27C139.17 203.16 139.651 196.316 144.34 192.829L147.622 190.387L278.419 192.328L355.561 271.272L355.558 271.275Z" fill="#A4CCEF"/>
<path d="M208.997 272.948L196.804 282.016L141.018 206.976C137.93 202.824 138.793 196.956 142.945 193.868L147.622 190.389L208.997 272.948Z" fill="#307DC1"/>
<path d="M143.485 282.016H506.256C510.707 282.016 514.312 278.408 514.312 273.958C514.312 269.506 510.704 265.9 506.256 265.9H143.485C139.034 265.9 135.429 269.509 135.429 273.958C135.429 278.408 139.037 282.016 143.485 282.016Z" fill="#307DC1"/>
<path d="M202.602 282.016H196.804V355.452H202.602V282.016Z" fill="#307DC1"/>
<path d="M587.67 282.016H581.872V355.452H587.67V282.016Z" fill="#307DC1"/>
<path d="M499.711 282.016H493.913V355.452H499.711V282.016Z" fill="#307DC1"/>
<path d="M304.822 282.016H299.024V355.452H304.822V282.016Z" fill="#307DC1"/>
<path d="M464.949 328.877H196.804V335.013H464.949V328.877Z" fill="#307DC1"/>
<path d="M587.67 328.877H459.151V335.013H587.67V328.877Z" fill="#307DC1"/>
<path d="M202.251 361.512C205.596 360.102 207.166 356.247 205.757 352.9C204.348 349.554 200.493 347.983 197.148 349.393C193.802 350.802 192.232 354.658 193.641 358.005C195.05 361.351 198.905 362.921 202.251 361.512Z" fill="#2B478B"/>
<path d="M203.382 355.579C203.436 353.554 201.837 351.869 199.813 351.816C197.788 351.762 196.104 353.361 196.05 355.386C195.997 357.411 197.595 359.096 199.62 359.15C201.644 359.203 203.329 357.604 203.382 355.579Z" fill="#AEC3FF"/>
<path d="M295.349 355.452C295.349 351.821 298.291 348.877 301.922 348.877C305.552 348.877 308.495 351.821 308.495 355.452C308.495 359.084 305.552 362.027 301.922 362.027C298.291 362.027 295.349 359.084 295.349 355.452Z" fill="#2B478B"/>
<path d="M305.608 355.572C305.661 353.547 304.063 351.862 302.038 351.809C300.014 351.755 298.329 353.354 298.276 355.379C298.222 357.404 299.82 359.089 301.845 359.143C303.87 359.196 305.554 357.597 305.608 355.572Z" fill="#AEC3FF"/>
<path d="M499.327 361.528C502.681 360.138 504.274 356.292 502.884 352.937C501.495 349.582 497.65 347.989 494.296 349.378C490.942 350.768 489.349 354.614 490.739 357.969C492.128 361.324 495.973 362.917 499.327 361.528Z" fill="#2B478B"/>
<path d="M493.146 355.452C493.146 353.425 494.787 351.784 496.813 351.784C498.839 351.784 500.478 353.425 500.478 355.452C500.478 357.479 498.836 359.117 496.813 359.117C494.79 359.117 493.146 357.476 493.146 355.452Z" fill="#AEC3FF"/>
<path d="M148.692 202.982V269.421H156.83V212.079L148.692 202.982Z" fill="#307DC1"/>
<path d="M270.96 206.826L301.863 218.516L285.242 221.17L273.799 213.458L270.96 206.826Z" fill="#FFB27D"/>
<path d="M326.305 266.842C327.505 267.301 345.787 240.935 343.515 233.573C343.405 233.214 304.124 225.614 297.607 223.772C283.227 219.696 266.988 205.156 258.867 203.789C242.039 200.953 214.153 217.731 218.59 232.206C225.279 254.023 237.936 266.848 259.164 266.65C259.919 266.641 324.978 266.361 326.302 266.842H326.305Z" fill="#E53326"/>
<path d="M243.954 216.616C246.334 215.461 248.731 213.684 249.733 211.207C250.68 208.864 249.24 206.514 246.903 206.067C245.896 205.875 243.804 203.704 242.814 202.724C239.232 199.184 236.985 197.443 236.985 197.443L221.122 197.774C223.075 198.267 227.608 208.216 228.524 213.859C229.325 218.79 239.41 218.827 243.954 216.616Z" fill="#FFB27D"/>
<path d="M242.811 202.727C240.426 198.77 238.895 196.441 238.895 196.441L224.438 201.148C228.431 204.041 233.788 205.954 242.811 202.727Z" fill="#E8945B"/>
<path d="M243.618 199.226C243.618 199.226 226.252 208.111 220.887 197.211C215.522 186.308 209.668 180.112 220.528 173.979C231.388 167.845 235.607 170.936 238.281 174.14C240.958 177.344 247.998 196.636 243.618 199.229V199.226Z" fill="#FFB27D"/>
<path d="M223.304 193.192C223.304 193.192 220.086 191.507 220.995 189.509C221.903 187.514 223.465 189.617 224.549 189.189C225.633 188.762 226.589 184.881 225.799 181.884C225.007 178.887 237.09 179.999 240.921 177.234C244.752 174.468 246.682 167.553 239.014 166.6C234.506 166.039 211.886 162.962 207.441 174.808C201.776 189.908 218.499 198.513 220.805 199.891C223.111 201.27 223.904 200.395 223.904 200.395C223.904 200.395 225.607 195.388 223.304 193.192Z" fill="#2C3A64"/>
<path d="M254.639 203.472C254.639 203.472 263.182 202.105 277.975 207.59C277.975 207.59 276.956 211.858 272.364 214.38C267.774 216.902 254.639 203.472 254.639 203.472Z" fill="#E53326"/>
<path d="M459.009 237.412C459.009 237.412 383.031 238.312 347.782 227.607C312.533 216.902 283.88 217.601 283.88 217.601C283.88 217.601 260.785 241.586 255.174 263.548C254.817 264.94 254.642 266.37 254.642 267.805V293.434C254.642 293.434 297.386 282.939 348.54 293.434C387.872 301.504 456.188 293.434 456.188 293.434L459.015 237.409L459.009 237.412Z" fill="#2B478B"/>
<path d="M226.956 246.257C226.956 246.257 270.844 262.15 279.757 260.528C288.671 258.906 312.16 233.633 312.16 233.633L307.683 230.423L277.332 247.007C277.332 247.007 249.483 232.232 237.525 224.7C231.085 220.644 223.417 244.79 226.954 246.257H226.956Z" fill="#FFB27D"/>
<path d="M256.656 235.642C254.362 243.803 250.134 250.995 240.024 256.777C238.371 257.723 237.047 259.138 235.711 257.859C230.927 253.287 221.048 243.304 218.592 232.203C218.36 231.162 219.543 229.096 220.31 228.346C223.21 225.504 230.876 219.86 237.197 221.445C242.817 222.855 251.662 228.04 256.376 230.967C257.941 231.937 257.203 233.723 256.662 235.64L256.656 235.642Z" fill="#E53326"/>
<path d="M307.686 230.423C307.686 230.423 309.52 225.753 309.998 224.556C310.476 223.358 314.109 220.321 314.254 221.17C314.398 222.02 313.011 223.899 313.538 223.964C314.064 224.029 316.263 220.01 317.745 220.058C319.228 220.106 318.416 225.26 317.89 227.607C317.363 229.95 312.165 233.633 312.165 233.633L307.689 230.423H307.686Z" fill="#FFB27D"/>
<path d="M588.151 217.593H449.952C448.255 217.593 446.879 218.969 446.879 220.667V278.943C446.879 280.64 448.255 282.016 449.952 282.016H588.151C589.848 282.016 591.224 280.64 591.224 278.943V220.667C591.224 218.969 589.848 217.593 588.151 217.593Z" fill="#307DC1"/>
<path d="M708.38 279.579V281.736C708.38 282.492 708.623 283.106 708.923 283.106H787.562C787.859 283.106 788.105 282.489 788.105 281.736V279.579C788.105 278.826 787.862 278.209 787.562 278.209H708.923C708.626 278.209 708.38 278.826 708.38 279.579Z" fill="#599BD7"/>
<path d="M708.38 279.579V281.736C708.38 282.492 708.603 283.106 708.878 283.106H771.308C771.583 283.106 771.806 282.489 771.806 281.736V279.579C771.806 278.826 771.583 278.209 771.308 278.209H708.878C708.603 278.209 708.38 278.826 708.38 279.579Z" fill="#5BA3E2"/>
<path d="M728.284 364.501H784.112V283.103H728.284V364.501Z" fill="#307DC1"/>
<path d="M712.639 364.501H768.467V283.103H712.639V364.501Z" fill="#A4CCEF"/>
<path d="M715.638 285.404H765.468V360.009H715.638V285.404ZM764.93 285.942H716.179V359.468H764.93V285.942Z" fill="#307DC1"/>
<path d="M765.199 310.083H715.907V310.621H765.199V310.083Z" fill="#307DC1"/>
<path d="M765.199 335.245H715.907V335.783H765.199V335.245Z" fill="#307DC1"/>
<path d="M735.502 290.216H744.648C745.092 290.216 745.454 289.854 745.454 289.409C745.454 288.965 745.092 288.603 744.648 288.603H735.502C735.058 288.603 734.696 288.965 734.696 289.409C734.696 289.854 735.058 290.216 735.502 290.216Z" fill="#307DC1"/>
<path d="M735.502 314.821H744.648C745.092 314.821 745.454 314.459 745.454 314.014C745.454 313.57 745.092 313.208 744.648 313.208H735.502C735.058 313.208 734.696 313.57 734.696 314.014C734.696 314.459 735.058 314.821 735.502 314.821Z" fill="#307DC1"/>
<path d="M735.502 340.468H744.648C745.092 340.468 745.454 340.105 745.454 339.661C745.454 339.217 745.092 338.854 744.648 338.854H735.502C735.058 338.854 734.696 339.217 734.696 339.661C734.696 340.105 735.058 340.468 735.502 340.468Z" fill="#307DC1"/>
<path d="M752.8 245.509C752.8 245.509 747.57 239.407 752.477 235.529C752.477 235.529 756.062 233.358 758.985 233.534C758.985 233.534 754.843 240.48 756.184 241.17C757.522 241.861 760.242 233.098 760.242 233.098C760.242 233.098 768.399 232.305 771.023 233.568C771.023 233.568 764.05 239.277 765.519 239.616C766.987 239.956 774.52 234.355 774.52 234.355C774.52 234.355 782.112 235.648 781.707 240.279C781.303 244.912 778.688 246.341 777.536 246.22C776.387 246.095 769.661 243.528 769.514 244.471C769.367 245.413 773.416 248.493 776.252 248.637C776.252 248.637 770.898 254.541 767.341 252.837C763.784 251.133 763.482 248.433 761.263 247.42C759.045 246.407 757.152 246.409 758.068 247.443C758.985 248.476 762.998 249.48 764.265 251.725C765.533 253.97 766.67 255.481 762.992 254.929C759.311 254.374 753.329 251.683 753.066 248.597L752.802 245.512L752.8 245.509Z" fill="#307DC1"/>
<path d="M777.975 240.406C777.975 240.406 757.355 239.611 752.8 245.509C752.8 245.509 751.792 248.527 748.694 251.275L748.21 252.591C748.21 252.591 751.784 248.824 753.063 248.595C753.063 248.595 751.062 241.286 777.975 240.406Z" fill="#307DC1"/>
<path d="M748.694 251.275C748.694 251.275 744.268 254.55 743.96 260.4L744.764 260.471C744.764 260.471 746.178 254.423 748.731 252.056C751.286 249.69 748.694 251.275 748.694 251.275Z" fill="#307DC1"/>
<path d="M734.514 237.833C734.514 237.833 742.834 233.174 738.951 226.848C738.951 226.848 735.844 222.965 732.517 221.966C732.517 221.966 734.291 231.397 732.517 231.618C730.743 231.838 731.297 220.967 731.297 220.967C731.297 220.967 722.534 216.749 719.096 217.083C719.096 217.083 724.532 226.293 722.757 226.07C720.983 225.849 714.882 216.528 714.882 216.528C714.882 216.528 705.898 214.864 704.455 220.191C703.012 225.518 705.344 228.179 706.674 228.513C708.006 228.847 716.546 228.733 716.326 229.843C716.105 230.952 710.335 232.727 707.118 231.728C707.118 231.728 710.669 240.494 715.327 240.049C719.984 239.605 721.427 236.721 724.311 236.497C727.194 236.276 729.302 237.052 727.859 237.828C726.416 238.603 721.538 238.082 719.206 240.064C716.877 242.045 714.99 243.265 719.317 244.154C723.643 245.042 731.408 244.488 732.961 241.159L734.514 237.83V237.833Z" fill="#4B9DE4"/>
<path d="M708.558 221.855C708.558 221.855 731.852 229.401 734.514 237.833C734.514 237.833 734.404 241.606 736.733 245.934V247.598C736.733 247.598 734.294 241.94 732.961 241.162C732.961 241.162 738.173 233.839 708.558 221.855Z" fill="#4B9DE4"/>
<path d="M736.733 245.934C736.733 245.934 740.326 251.391 738.278 258.034L737.352 257.785C737.352 257.785 738.249 250.468 736.371 246.789C734.492 243.109 736.733 245.934 736.733 245.934Z" fill="#4B9DE4"/>
<path d="M747.751 231.408C747.751 231.408 736.787 225.266 741.903 216.928C741.903 216.928 745.997 211.807 750.383 210.491C750.383 210.491 748.043 222.922 750.383 223.217C752.723 223.508 751.99 209.175 751.99 209.175C751.99 209.175 763.541 203.616 768.074 204.055C768.074 204.055 760.909 216.194 763.249 215.903C765.589 215.611 773.631 203.324 773.631 203.324C773.631 203.324 785.476 201.131 787.375 208.15C789.276 215.17 786.206 218.68 784.452 219.118C782.697 219.557 771.438 219.41 771.73 220.873C772.021 222.337 779.624 224.674 783.866 223.358C783.866 223.358 779.186 234.912 773.046 234.329C766.905 233.743 765.004 229.942 761.201 229.648C757.398 229.356 754.622 230.378 756.521 231.402C758.422 232.427 764.854 231.739 767.927 234.349C770.997 236.959 773.484 238.569 767.78 239.738C762.078 240.907 751.843 240.177 749.794 235.79L747.749 231.402L747.751 231.408Z" fill="#A4CCEF"/>
<path d="M781.965 210.347C781.965 210.347 751.261 220.293 747.749 231.408C747.749 231.408 747.896 236.381 744.823 242.085V244.278C744.823 244.278 748.041 236.82 749.795 235.795C749.795 235.795 742.922 226.143 781.962 210.347H781.965Z" fill="#4B9DE4"/>
<path d="M744.826 242.085C744.826 242.085 740.092 249.277 742.791 258.034L744.011 257.706C744.011 257.706 742.828 248.062 745.307 243.211C747.783 238.36 744.829 242.085 744.829 242.085H744.826Z" fill="#4B9DE4"/>
<path d="M747.381 277.021C759.245 277.021 768.863 267.4 768.863 255.532H725.901C725.901 267.4 735.519 277.021 747.381 277.021Z" fill="#307DC1"/>
<path d="M769.158 278.113H725.601C725.601 276.65 726.787 275.461 728.252 275.461H766.509C767.972 275.461 769.16 276.647 769.16 278.113H769.158Z" fill="#307DC1"/>
<path d="M769.35 255.532H725.194V256.191H769.35V255.532Z" fill="#5BA3E2"/>
<path d="M45.1867 297.374H41.7402V352.8H45.1867V297.374Z" fill="#307DC1"/>
<path d="M118.157 340.253V336.805H41.7401V340.253H118.157Z" fill="#307DC1"/>
<path d="M118.157 297.374H114.711V352.8H118.157V297.374Z" fill="#307DC1"/>
<path d="M92.6623 297.374H89.2158V352.8H92.6623V297.374Z" fill="#307DC1"/>
<path d="M37.541 356.168C37.541 352.896 40.1924 350.244 43.4634 350.244C46.7345 350.244 49.3859 352.896 49.3859 356.168C49.3859 359.44 46.7345 362.092 43.4634 362.092C40.1924 362.092 37.541 359.44 37.541 356.168Z" fill="#2B478B"/>
<path d="M40.1611 356.168C40.1611 354.345 41.6382 352.865 43.4633 352.865C45.2884 352.865 46.7655 354.342 46.7655 356.168C46.7655 357.994 45.2884 359.471 43.4633 359.471C41.6382 359.471 40.1611 357.994 40.1611 356.168Z" fill="#AEC3FF"/>
<path d="M85.0166 356.168C85.0166 352.896 87.668 350.244 90.939 350.244C94.2101 350.244 96.8615 352.896 96.8615 356.168C96.8615 359.44 94.2101 362.092 90.939 362.092C87.668 362.092 85.0166 359.44 85.0166 356.168Z" fill="#2B478B"/>
<path d="M87.6367 356.168C87.6367 354.345 89.1138 352.865 90.9389 352.865C92.764 352.865 94.2411 354.342 94.2411 356.168C94.2411 357.994 92.764 359.471 90.9389 359.471C89.1138 359.471 87.6367 357.994 87.6367 356.168Z" fill="#AEC3FF"/>
<path d="M110.515 356.168C110.515 352.896 113.166 350.244 116.437 350.244C119.708 350.244 122.36 352.896 122.36 356.168C122.36 359.44 119.708 362.092 116.437 362.092C113.166 362.092 110.515 359.44 110.515 356.168Z" fill="#2B478B"/>
<path d="M113.132 356.168C113.132 354.345 114.609 352.865 116.434 352.865C118.259 352.865 119.736 354.342 119.736 356.168C119.736 357.994 118.259 359.471 116.434 359.471C114.609 359.471 113.132 357.994 113.132 356.168Z" fill="#AEC3FF"/>
<path d="M118.12 267.878H67.1982V305.438H118.12V267.878Z" fill="#A4CCEF"/>
<path d="M92.6623 267.878H41.7402V305.438H92.6623V267.878Z" fill="#307DC1"/>
<path d="M64.7593 253.604V267.878H50.3706V253.559C50.3706 253.421 50.3763 253.285 50.3904 253.149C50.5404 251.51 51.5958 250.132 53.0474 249.517C54.0831 249.079 54.8103 248.13 54.8669 247.007L54.9716 244.943H60.2545L60.2885 246.998C60.3083 248.119 61.0185 249.081 62.0513 249.517C63.5086 250.134 64.5697 251.51 64.7338 253.146C64.748 253.296 64.7593 253.449 64.7593 253.602V253.604Z" fill="#C8DBF4"/>
<path d="M60.6307 245.849H54.4678L54.6319 244.239H60.4694L60.6307 245.849Z" fill="#B7D3F3"/>
<path d="M64.7593 253.604V262.809H50.3706V253.559C50.3706 253.42 50.3763 253.285 50.3904 253.149H64.7338C64.748 253.299 64.7593 253.452 64.7593 253.604Z" fill="white"/>
<path d="M76.5787 259.894V267.878H68.5312V259.868C68.5312 259.792 68.5341 259.715 68.5426 259.639C68.6275 258.722 69.216 257.952 70.0281 257.607C70.6082 257.36 71.0128 256.831 71.0468 256.203L71.1062 255.048H74.0604L74.0802 256.197C74.0915 256.823 74.4876 257.363 75.0649 257.607C75.8798 257.952 76.474 258.722 76.5646 259.636C76.5731 259.721 76.5787 259.806 76.5787 259.891V259.894Z" fill="#C8DBF4"/>
<path d="M74.2697 255.557H70.8232L70.9138 254.655H74.1792L74.2697 255.557Z" fill="#B7D3F3"/>
<path d="M76.5787 259.894V265.042H68.5312V259.868C68.5312 259.792 68.5341 259.715 68.5426 259.639H76.5646C76.5731 259.724 76.5787 259.809 76.5787 259.894Z" fill="white"/>
<path d="M341.591 142.999L342.227 147.743H343.699L344.188 142.999H341.591Z" fill="white"/>
<path d="M322.295 250.514C318.334 250.514 313.843 249.729 308.894 248.159C299.871 245.294 292.389 240.771 292.315 240.726L292.811 239.911C293.105 240.089 322.256 257.587 335.218 245.014C344.952 235.574 346.435 209.679 345.965 189.619C345.456 167.811 342.581 148.009 342.553 147.811L343.498 147.672C343.526 147.87 346.41 167.732 346.922 189.597C347.612 219.05 343.897 237.927 335.883 245.699C332.581 248.903 327.983 250.514 322.295 250.514Z" fill="white"/>
<path d="M290.148 242.271C289.769 241.615 289.995 240.768 290.651 240.389L293.088 238.982C293.744 238.603 294.59 238.83 294.969 239.486C295.349 240.143 295.122 240.989 294.466 241.368L292.029 242.775C291.373 243.154 290.527 242.928 290.148 242.271Z" fill="white"/>
<path d="M424.295 107.936C424.318 107.31 424.802 100.58 435.051 100.229C435.051 100.229 430.011 100.829 429.14 103.045C429.14 103.045 432.572 100.305 435.368 101.188C438.163 102.068 439.805 106.968 439.822 108.578C439.839 110.189 438.285 115.383 436.511 115.824C435.84 115.991 435.065 115.946 434.363 115.824C434.836 116.56 435.297 117.375 435.741 118.284C439.83 126.682 435.614 134.89 432.15 133.982C429.929 133.401 429.301 137.191 429.301 137.191L407.725 119.719C407.725 119.719 415.648 103.317 424.295 107.933V107.936Z" fill="#2C3A64"/>
<path d="M365.496 212.942C367.298 214.539 372.086 209.056 372.745 208.329C372.779 208.258 372.816 208.224 372.816 208.224L371.359 204.165C371.359 204.165 365.083 203.922 364.041 204.963C363 206.005 363.521 211.241 365.498 212.942H365.496Z" fill="#FFB27D"/>
<path d="M371.359 204.168L371.984 208.366C371.984 208.366 372.261 208.366 372.745 208.329C374.27 208.224 377.983 208.017 382.179 207.567C386.183 207.174 390.665 206.58 394.163 205.73C396.18 205.241 397.875 204.663 398.965 203.993C403.506 201.219 410.965 192.719 415.818 184.219C415.96 184.012 416.064 183.803 416.166 183.594C417.799 180.681 419.117 177.783 419.881 175.133C420.303 173.681 420.555 172.303 420.603 171.038C420.708 168.853 420.464 166.979 420.012 165.346C419.423 163.195 418.452 161.496 417.445 160.211C417.306 160.005 417.171 159.795 416.961 159.623C415.295 157.644 413.665 156.812 413.665 156.812C413 156.537 412.295 156.744 411.562 157.35C411.48 157.415 411.401 157.488 411.319 157.562C411.316 157.565 411.313 157.571 411.308 157.573C411.203 157.672 411.098 157.774 410.996 157.888V157.922C410.727 158.202 410.453 158.536 410.17 158.915C410.167 158.918 410.164 158.921 410.164 158.923C409.647 159.62 409.117 160.475 408.605 161.46C408.571 161.494 408.535 161.527 408.535 161.564C408.362 161.876 408.189 162.221 407.98 162.606C407.909 162.674 407.875 162.779 407.841 162.846C407.459 163.645 407.077 164.477 406.695 165.343C402.431 174.641 397.889 188.725 394.109 192.923C393.229 193.899 390.643 195.38 387.519 196.953C387.459 196.984 387.4 197.016 387.338 197.044C387.332 197.047 387.326 197.049 387.318 197.052C384.712 198.36 381.749 199.721 379.089 200.902C374.825 202.775 371.356 204.162 371.356 204.162L371.359 204.168Z" fill="#FFB27D"/>
<path d="M387.363 197.112C387.564 197.573 388.475 199.75 389.947 201.96C391.141 203.755 392.708 205.575 394.565 206.509C395.991 205.821 398.56 204.808 399.649 204.137C403.588 201.728 409.208 194.904 413.795 187.584C414.494 186.466 415.17 185.343 415.812 184.216C415.954 184.01 416.059 183.8 416.16 183.591C417.793 180.678 419.112 177.78 419.876 175.131L411.559 157.347L411.537 157.304C411.506 157.336 411.429 157.423 411.313 157.559C411.31 157.562 411.308 157.568 411.302 157.571C411.07 157.842 410.674 158.306 410.164 158.915C410.162 158.918 410.159 158.921 410.159 158.923C409.641 159.62 409.112 160.475 408.6 161.46C408.566 161.493 408.529 161.527 408.529 161.564C408.356 161.876 408.184 162.221 407.974 162.606C407.904 162.674 407.87 162.779 407.836 162.846C407.454 163.645 407.072 164.477 406.69 165.343C402.425 174.641 397.884 188.725 394.103 192.923C393.223 193.899 390.637 195.38 387.513 196.953C387.445 197.058 387.394 197.109 387.36 197.109L387.363 197.112Z" fill="#ABDDDA"/>
<path d="M389.95 201.96C391.144 203.755 392.711 205.575 394.568 206.509C395.994 205.821 398.563 204.808 399.652 204.137C403.591 201.728 409.211 194.904 413.798 187.584C413.625 185.283 401.588 197.1 400.057 199.24C398.903 200.856 392.946 201.657 389.947 201.957L389.95 201.96Z" fill="#91CECF"/>
<path d="M416.783 355.35L421.367 357.057C421.367 357.057 441.271 329.443 443.721 305.147C444.16 300.81 444.013 296.607 443.067 292.727C443.067 292.727 443.263 291.614 443.602 289.65C443.758 288.733 443.953 287.629 444.174 286.364C444.822 282.656 445.71 277.581 446.729 271.801C449.072 258.504 452.105 241.507 454.462 229.011L453.229 228.615L439.867 224.304L437.105 215.532L427.156 212.914C427.156 212.914 424.935 217.262 422.946 237.805C422.578 240.5 422.247 243.471 421.995 246.693C421.22 256.528 421.163 268.727 422.94 282.676C423.396 286.245 423.973 289.933 424.686 293.72C425.21 296.497 425.289 300.281 425.068 304.626C424.066 324.487 416.777 355.353 416.777 355.353L416.783 355.35Z" fill="#B5453C"/>
<path d="M421.998 246.69L443.599 289.65C443.755 288.733 443.95 287.629 444.171 286.364C444.819 282.656 445.707 277.581 446.726 271.801C449.069 258.504 452.102 241.507 454.459 229.011L453.226 228.615L439.864 224.304L437.102 215.532L427.153 212.914C427.153 212.914 424.932 217.262 422.943 237.805C422.575 240.5 422.244 243.471 421.992 246.693L421.998 246.69Z" fill="#93312C"/>
<path d="M431.502 218.422L432.003 214.131C440.382 216.359 462.767 207.913 462.767 207.913C462.767 207.913 470.882 215.048 469.819 232.155C469.298 240.505 468.347 275.988 467.357 286.486C466.997 290.29 466.683 292.999 466.556 294.08C466.556 294.085 466.556 294.088 466.556 294.091C466.516 294.422 466.632 294.734 466.799 295.022C468.259 297.502 469.471 300.086 470.464 302.727C480.203 328.688 468.964 360.66 468.964 360.66L466.047 359.483C466.047 359.483 459.652 323.901 454.454 308.181C453.571 305.515 452.725 303.42 451.949 302.166C449.689 298.518 447.592 292.557 445.69 285.467C442.094 272.062 439.196 254.626 437.269 241.168C437.003 241.179 431.508 218.416 431.508 218.416L431.502 218.422Z" fill="#B5453C"/>
<path d="M425.145 168.652C439.547 169.441 436.384 147.964 435.504 148.072C433.741 147.152 430.577 142.68 428.747 135.199L428.124 135.487L417.731 140.376C417.731 140.376 418.835 143.758 419.649 146.996C420.286 149.529 420.742 151.978 420.36 152.663C419.539 152.997 419.05 153.206 419.05 153.206C419.05 153.206 419.05 153.209 419.047 153.217C418.942 153.483 421.299 168.445 425.142 168.655L425.145 168.652Z" fill="#FFB27D"/>
<path d="M417.733 140.376C417.733 140.376 418.84 143.755 419.652 146.996C425.727 145.301 427.572 138.912 428.127 135.487L417.733 140.376Z" fill="#ED985F"/>
<path d="M416.455 143.956C416.455 143.956 430.99 140.591 428.755 131.57C426.52 122.549 426.893 116.037 417.519 117.806C408.144 119.572 407.202 123.461 407.213 126.654C407.227 129.846 412.615 144.601 416.455 143.959V143.956Z" fill="#FFB27D"/>
<path d="M406.395 121.528C407.957 118.259 409.797 118.431 410.948 119.011C417.779 112.691 424.477 117.854 424.477 117.854C427.054 124.084 432.643 126.631 432.643 126.631C432.643 126.631 430.41 128.918 423.939 128.867C421.961 128.853 419.975 127.944 418.167 126.693C421.656 130.209 425.744 132.348 425.744 132.348C417.643 130.797 412.21 121.417 411.653 120.421C410.968 121.434 409.655 123.594 409.545 125.414C409.395 127.891 410.246 132.699 408.829 132.881C408.829 132.881 404.052 126.433 406.398 121.528H406.395Z" fill="#2C3A64"/>
<path d="M452 363.046H475.082C475.082 363.046 475.636 359.528 474.428 356.859C473.274 354.297 471.463 353.134 471.896 350.035C470.43 351.546 468.039 353.236 464.703 352.789C464.292 353.451 462.063 357 460.699 357.983C459.191 359.067 452.465 358.682 452 363.049V363.046Z" fill="#233862"/>
<path d="M402.442 363.046H425.524C425.524 363.046 426.387 359.364 424.87 356.859C423.529 354.643 424.044 353.38 425.037 351.543C423.99 351.971 422.637 352.361 421.149 352.276C420 352.211 418.784 351.688 417.717 351.068C416.724 352.2 412.471 357.023 411.141 357.977C409.632 359.061 402.906 358.676 402.442 363.043V363.046Z" fill="#233862"/>
<path d="M411.542 157.31L415.326 208.15L417.64 239.282C421.2 240.389 424.59 241.255 427.804 241.92C428.017 239.311 428.86 236.189 428.86 236.189C428.823 237.825 430.739 240.958 431.873 242.662C461.429 247.397 475.286 234.502 475.286 234.502C474.137 223.087 469.157 199.996 463.195 180.639C461.952 176.611 460.671 172.747 459.372 169.184C456.418 161.08 454.539 156.849 452.946 153.568C449.915 147.333 436.364 147.723 436.364 147.723C433.755 157.132 426.582 162.996 426.582 162.996C422.759 160.752 419.91 152.855 419.91 152.855L411.542 157.31Z" fill="#ABDDDA"/>
<path d="M433.376 145.985C433.376 145.985 435.835 146.15 436.361 147.723C436.361 147.723 433.152 160.644 426.582 162.996L433.376 145.985Z" fill="#6BB7BF"/>
<path d="M426.585 162.996C426.585 162.996 420.453 152.793 420.479 151.261C420.479 151.261 417.946 152.246 418.102 153.817C418.102 153.817 423.39 162.289 426.585 162.994V162.996Z" fill="#6BB7BF"/>
<path d="M443.415 158.4C443.237 159.011 421.109 194.349 420.628 201.386C420.144 208.422 429.932 204.445 430.085 203.528C430.238 202.611 443.415 158.4 443.415 158.4Z" fill="#91CECF"/>
<path d="M415.326 208.15L417.64 239.282C449.295 230.163 451.036 163.347 451.036 163.347L431.471 198.677L415.495 207.913C415.495 207.913 415.433 207.995 415.323 208.15H415.326Z" fill="#91CECF"/>
<path d="M401.251 211.001L402.465 215.442C402.465 215.442 403.99 215.164 406.421 214.714C407.148 214.573 407.564 214.471 407.564 214.471C409.505 214.092 411.828 213.571 414.361 213.013H414.397C418.732 211.972 423.585 210.723 427.68 209.336C428.048 209.209 428.407 209.079 428.761 208.951C431.18 208.057 433.271 207.12 434.757 206.18C434.932 206.076 435.068 205.971 435.243 205.835C439.298 202.886 444.12 194.216 447.866 184.915C448.387 183.633 448.874 182.348 449.355 181.1C451.089 176.452 452.479 171.873 453.311 167.916C453.831 165.558 454.176 163.407 454.247 161.638C454.281 161.015 454.318 160.424 454.281 159.869C454.213 149.809 447.102 148.768 446.166 149.914C444.989 151.338 443.741 153.659 442.456 156.469C440.481 160.942 438.401 166.738 436.457 172.495C435.379 175.654 434.341 178.81 433.299 181.723C432.708 183.492 432.119 185.156 431.565 186.682C430.49 189.597 429.519 191.958 428.653 193.446C428.096 194.42 426.503 195.77 424.386 197.299C423.826 197.706 423.223 198.125 422.595 198.555C419.086 200.938 414.621 203.593 410.654 205.832C408.713 206.942 406.873 207.949 405.348 208.782C402.887 210.135 401.257 211.004 401.257 211.004L401.251 211.001Z" fill="#FFB27D"/>
<path d="M422.592 198.555C422.592 198.555 422.338 206.945 430.187 211.023C439.262 207.749 444.114 194.211 447.861 184.913C448.381 183.63 448.868 182.345 449.349 181.097C451.084 176.45 452.473 171.87 453.305 167.913C453.826 165.555 454.171 163.404 454.242 161.635C454.276 161.012 454.312 160.421 454.276 159.866C454.208 149.807 447.097 148.765 446.16 149.911C444.983 151.335 443.735 153.656 442.451 156.467C440.475 160.939 438.396 166.735 436.452 172.493C435.374 175.651 434.335 178.807 433.294 181.72C432.702 183.489 432.114 185.153 431.559 186.679C430.484 189.594 429.513 191.955 428.648 193.444C428.09 194.417 426.497 195.767 424.381 197.296C423.82 197.703 423.218 198.122 422.589 198.552L422.592 198.555Z" fill="#ABDDDA"/>
<rect x="417" y="175" width="8" height="1" fill="#12416D"/>
<rect x="417" y="177" width="8" height="1" fill="#E53325"/>
<rect x="417" y="179" width="8" height="1" fill="#12416D"/>
<path d="M387.318 197.055C387.326 197.092 387.343 197.109 387.363 197.109C387.352 197.081 387.341 197.061 387.335 197.044C387.307 196.99 387.301 196.99 387.315 197.052L387.318 197.055Z" fill="#ABDDDA"/>
<path d="M367.145 360.663H373.189L373.189 100.229H367.145L367.145 360.663Z" fill="white"/>
<path d="M344.002 143.69H343.402C338.226 143.69 334.024 139.487 334.024 134.31V109.484H353.382V134.31C353.382 139.487 349.18 143.69 344.004 143.69H344.002Z" fill="white"/>
<path d="M343.614 141.989H343.368C338.951 141.989 335.363 138.4 335.363 133.982V128.55H351.619V133.982C351.619 138.4 348.031 141.989 343.614 141.989Z" fill="#E53326"/>
<path d="M329.885 104.896H373.187V100.226H329.885V104.896Z" fill="white"/>
<path d="M341.823 110.537H345.159V104.896H341.823V110.537Z" fill="white"/>
<path d="M387.867 355.452H353.837V362.027H387.867V355.452Z" fill="white"/>
<path d="M394.969 205.476H367.143V217.59H394.969V205.476Z" fill="white"/>
<path d="M392.742 207.749H370.165V213.913H392.742V207.749Z" fill="#307DC1"/>
<path d="M387.822 210.559C389.732 210.551 392.745 210.42 394.488 209.75C394.488 209.75 388.922 209.67 390.105 207.91C390.32 207.59 393.088 207.831 396.175 207.831C397.442 207.831 400.572 209.566 400.411 209.648C402.649 209.353 404.683 208.917 405.343 208.776C405.515 208.742 405.586 208.705 405.586 208.705L407.564 214.462C407.564 214.462 407.148 214.567 406.421 214.706C404.582 215.156 400.804 216.129 397.23 217.516C392.236 219.495 388.563 217.035 386.896 215.297C385.841 214.196 385.006 212.733 385.065 211.672C385.128 210.508 386.661 210.562 387.827 210.556L387.822 210.559Z" fill="#FFB27D"/>
<path d="M647.404 133.283C647.404 133.283 635.474 135.377 632.777 142.422C630.081 149.464 614.843 263.239 614.843 263.239C614.843 263.239 622.39 269.22 638.584 267.072C654.781 264.923 647.404 133.283 647.404 133.283Z" fill="#ABDDDA"/>
<path d="M629.648 357.303C629.608 359.341 629.351 361.269 628.612 362.03H599C599.376 360.957 600.443 359.347 603.482 358.851C606.937 358.291 612.322 356.63 615.466 353.304C616.586 352.123 617.421 350.728 617.786 349.101C619.178 342.896 629.305 351.003 629.305 351.003C629.305 351.003 629.716 354.269 629.648 357.303Z" fill="#233862"/>
<path d="M675.301 357.303C675.261 359.341 675.004 361.269 674.265 362.03H644.653C645.03 360.957 646.096 359.347 649.135 358.851C652.59 358.291 657.975 356.63 661.119 353.304C662.239 352.123 663.074 350.728 663.439 349.101C664.831 342.896 674.959 351.003 674.959 351.003C674.959 351.003 675.369 354.269 675.301 357.303Z" fill="#233862"/>
<path d="M616.895 354.286C620.205 355.342 626.53 358.566 630.548 357.048C633.145 356.069 647.659 314.074 648.601 295.704C648.672 294.368 648.932 292.506 649.345 290.233C650.205 285.492 651.708 278.979 653.44 271.79C658.086 252.529 664.368 228.433 664.232 220.732C664.022 208.779 628.618 218.227 628.618 218.227C628.618 218.227 626.182 228.031 625.698 242.229C624.736 270.409 622.093 318.008 614.906 351.065C614.6 352.469 615.528 353.853 616.9 354.289L616.895 354.286Z" fill="#93312C"/>
<path d="M641.467 220.771L658.55 353.737C658.55 353.737 669.54 355.206 675.932 353.621C675.932 353.621 680.273 284.688 679.817 267.242C679.362 249.795 683.751 220.559 678.816 217.335C673.881 214.111 641.467 220.771 641.467 220.771Z" fill="#B5453C"/>
<path d="M681.178 139.498C681.178 139.498 661.509 126.778 647.404 133.283C645.157 134.318 642.591 137.211 640.754 139.235C635.655 144.856 625.692 234.14 625.692 234.14C625.692 234.14 653.977 243.721 681.178 230.887V139.498Z" fill="white"/>
<path d="M646.286 132.96C646.286 132.96 626.374 141.123 623.677 147.395C620.981 153.667 612.214 192.181 612.214 196.696C612.214 201.21 627.475 197.706 629.934 190.421C631.974 184.372 638.855 165.79 642.483 154.038L646.283 132.96H646.286Z" fill="#ABDDDA"/>
<path d="M650.42 139.181C654.767 140.033 661.153 139.125 665.828 136.042C663.717 130.998 662.851 127.019 662.545 124.443C662.528 124.307 662.514 124.174 662.5 124.044C662.361 122.708 662.381 121.802 662.446 121.386H651.21C651.21 121.386 648.137 122.79 648.137 123.764C648.137 124.282 648.131 124.78 648.123 125.255C648.1 126.549 648.049 127.675 647.981 128.646C647.769 131.799 647.407 133.285 647.407 133.285C647.407 133.285 646.034 138.321 650.423 139.181H650.42Z" fill="#FFB27D"/>
<path d="M647.978 128.643C656.492 130.288 661.433 125.635 662.542 124.443C662.701 124.273 662.78 124.171 662.78 124.171C662.689 124.126 662.596 124.086 662.497 124.047C659.328 122.762 652.135 123.784 648.12 125.255C648.097 126.549 648.046 127.675 647.978 128.646V128.643Z" fill="#E2915A"/>
<path d="M665.324 119.538C663.802 127.729 653.239 127.46 648.672 126.945C647.387 126.804 646.578 126.64 646.578 126.64C645.129 126.252 644.32 123.97 643.946 120.979C643.202 115.06 644.141 106.376 645.14 104.155C646.646 100.812 649.478 97.1973 660.117 99.8041C670.76 102.414 667.276 109.045 665.324 119.538Z" fill="#FFB27D"/>
<path d="M644.744 99.5862C646.198 97.5737 649.283 95.1113 652.081 93.597C658.097 90.342 665.796 93.6989 665.83 93.713C674.52 97.5341 676.79 104.186 672.183 114.545C667.31 125.502 662.673 124.268 662.673 124.268C662.673 124.268 663.657 123.656 663.57 120.24C663.564 120.045 663.558 119.883 663.547 119.745C663.502 119.045 663.748 118.344 664.271 117.876C665.349 116.914 665.876 113.999 664.973 113.186C663.884 112.207 662.35 113.396 661.86 114.31C661.433 114.955 660.666 115.182 659.953 114.732C657.248 113.022 659.005 109.6 656.422 107.509C653.838 105.417 648.592 107.172 644.716 105.505C639.639 103.614 643.652 101.103 644.747 99.5862H644.744Z" fill="#233862"/>
<path d="M643.536 271.598C645.247 272.039 646.942 272.401 648.629 272.679C650.12 272.934 651.603 273.12 653.088 273.248C661.507 273.981 669.961 272.795 679.843 269.962C682.067 269.325 684.367 268.6 686.753 267.796C687.007 267.711 686.105 241.572 685.06 214.609C684.956 211.827 684.845 209.031 684.738 206.257C684.69 205.082 684.644 203.913 684.599 202.744C683.654 178.898 682.715 157.364 682.519 156.203C682.067 153.58 681.645 151.344 681.184 149.405C679.837 143.755 678.165 140.656 674.52 137.992C674.166 137.723 671.249 136.252 668.68 134.972C666.549 133.914 664.656 132.988 664.656 132.988C663.81 133.404 662.791 135.346 661.724 138.074C659.766 143.101 657.655 150.8 656.184 156.549C656.178 156.566 656.178 156.574 656.178 156.577C655.233 160.291 654.554 163.183 654.362 164.013C654.033 165.414 653.601 168.125 653.088 171.799C652.395 176.8 651.569 183.591 650.695 191.295C650.604 192.088 650.513 192.889 650.426 193.698C650.321 194.621 650.216 195.558 650.114 196.5C650.08 196.803 650.047 197.106 650.015 197.412C649.679 200.463 649.339 203.613 649.002 206.814C648.722 209.461 644.71 211.374 644.433 214.066C644.274 215.645 643.94 230.228 643.51 234.881C643.202 238.204 643.422 270.035 643.541 271.595L643.536 271.598Z" fill="#ABDDDA"/>
<path d="M672.562 165.818C672.573 165.872 673.244 189.931 655.151 192.855C637.059 195.779 649.079 196.551 649.079 196.551C649.079 196.551 683.119 195.105 683.683 194.205C684.246 193.305 672.562 165.821 672.562 165.821V165.818Z" fill="#91CECF"/>
<path d="M657.276 203.183C657.276 203.183 657.616 203.424 658.267 203.845C658.278 203.851 658.289 203.86 658.301 203.865C661.06 205.629 669.254 210.432 681.181 213.653C682.432 213.993 683.728 214.312 685.061 214.61C684.956 211.827 684.846 209.031 684.738 206.257C686.314 206.132 687.822 205.934 689.223 205.637C689.175 205.269 689.127 204.904 689.079 204.539C687.562 203.916 686.054 203.316 684.599 202.747C683.414 202.283 682.268 201.844 681.184 201.434C676.283 199.571 672.653 198.312 672.653 198.312L658.151 202.909L657.282 203.186L657.276 203.183Z" fill="#91CECF"/>
<path d="M653.437 202.781C653.437 202.781 655.301 203.245 658.267 203.845C658.278 203.845 658.287 203.845 658.298 203.851C663.768 204.949 672.964 206.492 681.181 206.41C682.392 206.396 683.583 206.35 684.735 206.26C686.311 206.135 687.819 205.937 689.22 205.64C692.222 205.006 694.738 203.933 696.382 202.258C708.6 189.806 689.712 145.122 685.742 140.775C681.105 135.7 672.644 133.917 667.972 133.305C667.777 133.28 667.59 133.257 667.409 133.234C665.765 133.039 664.713 133 664.653 132.997C664.653 132.997 665.018 134.174 665.632 136.172C665.87 136.945 666.147 137.842 666.45 138.844C669.319 148.247 674.857 166.724 677.299 177.143C678.193 180.956 678.671 183.69 678.453 184.505C677.5 188.063 667.627 189.894 661.371 190.704C658.762 191.04 656.781 191.202 656.34 191.233C656.309 191.233 656.28 191.233 656.246 191.239L655.884 192.722L655.018 196.28L654.167 199.775L653.437 202.778V202.781Z" fill="#ABDDDA"/>
<path d="M619.356 224.199L661.323 222.43L652.808 170.115L610.842 171.884L619.356 224.199Z" fill="#233862"/>
<path d="M628.622 187.07C628.602 186.925 628.562 186.799 628.501 186.692C628.444 186.585 628.354 186.492 628.231 186.414C628.108 186.336 627.941 186.267 627.729 186.207C627.52 186.144 627.256 186.087 626.937 186.036C626.587 185.979 626.262 185.907 625.961 185.82C625.662 185.73 625.397 185.615 625.164 185.477C624.931 185.335 624.741 185.162 624.595 184.959C624.448 184.752 624.355 184.504 624.315 184.214C624.275 183.927 624.299 183.657 624.385 183.405C624.475 183.153 624.62 182.926 624.819 182.725C625.021 182.519 625.268 182.349 625.562 182.213C625.855 182.074 626.187 181.979 626.557 181.928C627.08 181.856 627.543 181.89 627.947 182.032C628.354 182.173 628.682 182.392 628.93 182.69C629.181 182.987 629.334 183.332 629.388 183.726L628.184 183.892C628.152 183.66 628.074 183.462 627.949 183.298C627.827 183.131 627.66 183.01 627.445 182.934C627.234 182.858 626.977 182.841 626.674 182.883C626.387 182.922 626.155 182.999 625.976 183.112C625.798 183.225 625.673 183.363 625.6 183.524C625.526 183.685 625.503 183.859 625.529 184.046C625.547 184.178 625.594 184.295 625.671 184.396C625.747 184.494 625.854 184.581 625.992 184.658C626.131 184.731 626.3 184.794 626.502 184.849C626.703 184.903 626.938 184.949 627.206 184.988C627.612 185.05 627.97 185.132 628.28 185.234C628.59 185.333 628.853 185.457 629.071 185.608C629.289 185.759 629.462 185.94 629.59 186.153C629.717 186.362 629.801 186.608 629.84 186.892C629.881 187.189 629.858 187.465 629.772 187.72C629.685 187.972 629.542 188.197 629.342 188.395C629.146 188.59 628.899 188.754 628.602 188.887C628.307 189.016 627.971 189.107 627.594 189.159C627.256 189.205 626.916 189.206 626.574 189.161C626.236 189.116 625.921 189.02 625.628 188.873C625.334 188.723 625.089 188.52 624.893 188.264C624.696 188.006 624.572 187.689 624.521 187.315L625.735 187.148C625.766 187.377 625.832 187.567 625.931 187.717C626.034 187.867 626.164 187.984 626.32 188.068C626.476 188.148 626.65 188.2 626.844 188.222C627.041 188.244 627.247 188.24 627.463 188.211C627.747 188.171 627.979 188.098 628.158 187.992C628.34 187.884 628.47 187.751 628.546 187.593C628.623 187.435 628.648 187.26 628.622 187.07ZM634.028 186.916L633.476 182.916L634.647 182.754L635.368 187.988L634.266 188.14L634.028 186.916ZM634.042 185.805L634.433 185.741C634.481 186.093 634.487 186.422 634.451 186.729C634.414 187.033 634.33 187.306 634.199 187.548C634.067 187.786 633.884 187.984 633.65 188.141C633.415 188.295 633.121 188.396 632.77 188.445C632.515 188.48 632.276 188.475 632.053 188.43C631.83 188.385 631.63 188.296 631.454 188.163C631.281 188.029 631.136 187.844 631.018 187.607C630.9 187.37 630.817 187.079 630.769 186.734L630.303 183.353L631.469 183.192L631.936 186.583C631.963 186.773 632.007 186.93 632.07 187.053C632.133 187.172 632.208 187.265 632.296 187.332C632.384 187.399 632.482 187.441 632.59 187.459C632.697 187.477 632.809 187.478 632.925 187.462C633.257 187.416 633.51 187.316 633.682 187.161C633.857 187.002 633.97 186.805 634.02 186.572C634.073 186.338 634.08 186.082 634.042 185.805ZM637.149 183.424L637.734 187.662L636.568 187.822L635.846 182.589L636.959 182.435L637.149 183.424ZM638.608 182.173L638.748 183.258C638.675 183.255 638.597 183.256 638.512 183.261C638.43 183.266 638.349 183.274 638.269 183.285C638.069 183.312 637.897 183.366 637.753 183.444C637.609 183.52 637.493 183.618 637.405 183.739C637.319 183.856 637.259 183.992 637.225 184.148C637.19 184.304 637.181 184.475 637.197 184.66L636.933 184.716C636.888 184.387 636.878 184.078 636.904 183.788C636.93 183.499 636.992 183.239 637.092 183.008C637.195 182.777 637.336 182.589 637.517 182.442C637.7 182.295 637.922 182.204 638.184 182.168C638.255 182.158 638.331 182.154 638.414 182.156C638.499 182.157 638.564 182.163 638.608 182.173ZM642.289 187.132C641.902 187.185 641.544 187.171 641.213 187.088C640.886 187.002 640.597 186.859 640.346 186.66C640.098 186.461 639.895 186.215 639.736 185.921C639.578 185.628 639.474 185.302 639.424 184.944L639.398 184.751C639.341 184.341 639.35 183.962 639.423 183.613C639.497 183.265 639.623 182.958 639.804 182.693C639.984 182.425 640.21 182.209 640.483 182.043C640.756 181.877 641.062 181.771 641.4 181.724C641.774 181.672 642.11 181.69 642.408 181.777C642.706 181.864 642.963 182.01 643.178 182.213C643.396 182.413 643.572 182.663 643.705 182.964C643.842 183.264 643.936 183.602 643.989 183.979L644.057 184.478L640.013 185.035L639.898 184.199L642.791 183.8L642.778 183.708C642.743 183.499 642.674 183.308 642.571 183.135C642.471 182.961 642.336 182.829 642.166 182.737C641.996 182.646 641.781 182.618 641.523 182.653C641.33 182.68 641.163 182.746 641.023 182.851C640.886 182.952 640.778 183.086 640.7 183.255C640.621 183.424 640.569 183.621 640.545 183.848C640.523 184.071 640.531 184.318 640.568 184.589L640.595 184.783C640.626 185.012 640.686 185.22 640.775 185.408C640.866 185.593 640.983 185.749 641.125 185.878C641.268 186.006 641.432 186.1 641.618 186.16C641.803 186.216 642.007 186.229 642.229 186.199C642.51 186.16 642.752 186.069 642.956 185.926C643.159 185.783 643.328 185.597 643.46 185.368L644.157 185.879C644.067 186.059 643.942 186.237 643.782 186.413C643.622 186.586 643.418 186.738 643.169 186.867C642.924 186.997 642.631 187.085 642.289 187.132ZM623.455 199.068L621.622 199.321L621.489 198.358L623.323 198.106C623.642 198.062 623.893 197.974 624.075 197.844C624.258 197.714 624.381 197.552 624.447 197.359C624.515 197.162 624.533 196.946 624.5 196.711C624.47 196.488 624.394 196.287 624.274 196.106C624.157 195.922 623.991 195.784 623.778 195.692C623.565 195.599 623.299 195.575 622.98 195.619L621.519 195.821L622.357 201.896L621.143 202.064L620.171 195.021L622.846 194.652C623.391 194.577 623.867 194.61 624.274 194.751C624.684 194.888 625.013 195.112 625.259 195.423C625.506 195.731 625.658 196.101 625.718 196.533C625.781 196.988 625.735 197.392 625.58 197.745C625.425 198.098 625.167 198.388 624.807 198.615C624.451 198.842 624 198.993 623.455 199.068ZM630.101 199.758L629.757 197.262C629.731 197.075 629.675 196.919 629.589 196.793C629.502 196.667 629.385 196.576 629.236 196.521C629.09 196.466 628.914 196.452 628.708 196.48C628.517 196.507 628.357 196.562 628.228 196.645C628.098 196.729 628.002 196.831 627.94 196.951C627.877 197.071 627.856 197.201 627.875 197.34L626.714 197.5C626.685 197.293 626.708 197.087 626.781 196.879C626.854 196.672 626.976 196.479 627.145 196.302C627.314 196.124 627.525 195.973 627.778 195.85C628.03 195.726 628.321 195.642 628.65 195.596C629.043 195.542 629.401 195.56 629.722 195.651C630.046 195.74 630.314 195.907 630.525 196.151C630.739 196.391 630.874 196.711 630.929 197.111L631.25 199.437C631.283 199.676 631.328 199.888 631.387 200.074C631.448 200.256 631.521 200.412 631.604 200.542L631.615 200.619L630.42 200.784C630.348 200.666 630.282 200.512 630.223 200.323C630.167 200.13 630.127 199.942 630.101 199.758ZM629.976 197.602L630.085 198.321L629.249 198.437C629.032 198.466 628.845 198.514 628.686 198.578C628.527 198.64 628.398 198.717 628.299 198.809C628.2 198.902 628.131 199.006 628.091 199.124C628.052 199.241 628.041 199.369 628.06 199.507C628.08 199.646 628.129 199.769 628.21 199.876C628.29 199.98 628.396 200.056 628.527 200.104C628.662 200.151 628.818 200.162 628.995 200.138C629.234 200.105 629.435 200.028 629.599 199.906C629.766 199.782 629.891 199.641 629.975 199.485C630.058 199.326 630.094 199.181 630.083 199.051L630.531 199.517C630.511 199.654 630.464 199.805 630.392 199.97C630.319 200.134 630.216 200.296 630.084 200.456C629.954 200.612 629.791 200.748 629.593 200.863C629.399 200.979 629.166 201.055 628.895 201.093C628.553 201.14 628.239 201.114 627.953 201.016C627.666 200.914 627.431 200.758 627.248 200.546C627.063 200.332 626.951 200.076 626.91 199.779C626.872 199.502 626.89 199.25 626.963 199.023C627.04 198.792 627.17 198.59 627.353 198.417C627.539 198.244 627.776 198.099 628.062 197.984C628.348 197.866 628.682 197.78 629.062 197.728L629.976 197.602ZM634.313 194.914L634.43 195.765L631.48 196.172L631.362 195.321L634.313 194.914ZM632.037 193.922L633.202 193.761L633.902 198.83C633.924 198.991 633.964 199.112 634.021 199.193C634.081 199.27 634.154 199.318 634.242 199.335C634.33 199.352 634.431 199.353 634.543 199.338C634.624 199.327 634.701 199.311 634.774 199.291C634.846 199.271 634.905 199.253 634.949 199.238L635.076 200.127C634.983 200.169 634.874 200.211 634.748 200.251C634.626 200.291 634.482 200.322 634.318 200.345C634.05 200.382 633.806 200.368 633.587 200.303C633.367 200.234 633.185 200.1 633.039 199.9C632.893 199.7 632.795 199.421 632.746 199.063L632.037 193.922ZM636.46 194.618L637.182 199.851L636.012 200.013L635.29 194.779L636.46 194.618ZM635.023 193.416C634.998 193.239 635.036 193.084 635.136 192.952C635.239 192.816 635.395 192.734 635.605 192.705C635.811 192.676 635.982 192.714 636.118 192.816C636.254 192.916 636.333 193.054 636.358 193.232C636.382 193.406 636.342 193.559 636.239 193.692C636.136 193.824 635.981 193.905 635.775 193.933C635.565 193.962 635.392 193.927 635.257 193.827C635.125 193.727 635.047 193.59 635.023 193.416ZM640.78 199.454C640.393 199.507 640.034 199.492 639.704 199.41C639.377 199.323 639.088 199.181 638.837 198.982C638.589 198.783 638.386 198.537 638.227 198.243C638.068 197.95 637.964 197.624 637.915 197.266L637.888 197.072C637.832 196.663 637.84 196.284 637.914 195.935C637.987 195.587 638.114 195.28 638.295 195.015C638.475 194.747 638.701 194.53 638.974 194.365C639.247 194.199 639.552 194.092 639.891 194.046C640.265 193.994 640.601 194.012 640.899 194.099C641.197 194.186 641.453 194.331 641.669 194.535C641.887 194.735 642.063 194.985 642.196 195.285C642.333 195.585 642.427 195.924 642.479 196.301L642.548 196.799L638.504 197.357L638.389 196.52L641.281 196.121L641.269 196.029C641.233 195.821 641.164 195.63 641.062 195.457C640.962 195.283 640.827 195.151 640.657 195.059C640.486 194.968 640.272 194.94 640.014 194.975C639.821 195.002 639.654 195.068 639.514 195.172C639.377 195.273 639.269 195.408 639.19 195.577C639.112 195.745 639.06 195.943 639.035 196.17C639.014 196.393 639.021 196.64 639.059 196.911L639.086 197.104C639.117 197.333 639.177 197.542 639.265 197.73C639.357 197.915 639.474 198.071 639.616 198.199C639.759 198.328 639.923 198.422 640.108 198.482C640.294 198.538 640.498 198.551 640.72 198.52C641.001 198.482 641.243 198.391 641.446 198.248C641.65 198.105 641.818 197.919 641.951 197.69L642.648 198.2C642.557 198.38 642.432 198.559 642.273 198.735C642.113 198.908 641.908 199.06 641.66 199.189C641.415 199.318 641.122 199.406 640.78 199.454ZM644.359 194.667L644.926 198.783L643.761 198.944L643.039 193.71L644.137 193.559L644.359 194.667ZM644.331 196.001L643.953 196.049C643.905 195.677 643.909 195.33 643.967 195.007C644.027 194.683 644.132 194.397 644.282 194.15C644.435 193.902 644.631 193.701 644.869 193.546C645.107 193.389 645.383 193.288 645.695 193.245C645.947 193.21 646.179 193.215 646.392 193.258C646.608 193.297 646.799 193.384 646.965 193.519C647.135 193.653 647.276 193.839 647.387 194.076C647.499 194.311 647.579 194.607 647.628 194.965L648.095 198.346L646.924 198.508L646.457 195.122C646.422 194.87 646.358 194.677 646.264 194.542C646.172 194.403 646.053 194.313 645.906 194.271C645.762 194.225 645.588 194.216 645.385 194.244C645.185 194.272 645.012 194.338 644.865 194.444C644.719 194.55 644.601 194.683 644.511 194.843C644.425 195.003 644.365 195.182 644.334 195.38C644.302 195.578 644.301 195.785 644.331 196.001ZM650.962 192.617L651.079 193.469L648.129 193.876L648.011 193.024L650.962 192.617ZM648.686 191.625L649.851 191.464L650.551 196.534C650.573 196.695 650.613 196.816 650.67 196.897C650.73 196.974 650.804 197.021 650.891 197.039C650.979 197.056 651.08 197.057 651.192 197.041C651.273 197.03 651.35 197.015 651.423 196.995C651.495 196.975 651.554 196.957 651.598 196.941L651.725 197.831C651.632 197.873 651.523 197.914 651.397 197.955C651.275 197.995 651.131 198.026 650.967 198.049C650.699 198.085 650.455 198.071 650.236 198.006C650.016 197.938 649.834 197.804 649.688 197.604C649.542 197.404 649.444 197.125 649.395 196.767L648.686 191.625ZM621.922 206.893L624.413 206.549C624.949 206.476 625.416 206.493 625.815 206.602C626.215 206.712 626.537 206.91 626.78 207.199C627.026 207.484 627.181 207.857 627.245 208.318C627.293 208.669 627.272 208.988 627.18 209.273C627.087 209.559 626.936 209.809 626.726 210.026C626.516 210.239 626.255 210.418 625.943 210.563L625.6 210.792L623.36 211.101L623.218 210.14L624.896 209.908C625.187 209.868 625.421 209.783 625.6 209.654C625.78 209.524 625.905 209.363 625.978 209.173C626.053 208.978 626.075 208.768 626.044 208.543C626.01 208.297 625.932 208.091 625.81 207.924C625.692 207.753 625.527 207.633 625.317 207.563C625.107 207.49 624.85 207.475 624.547 207.517L623.27 207.693L624.108 213.768L622.894 213.936L621.922 206.893ZM626.913 213.381L624.823 210.446L626.094 210.266L628.201 213.14L628.209 213.202L626.913 213.381ZM631.338 212.87C630.951 212.923 630.592 212.908 630.262 212.826C629.935 212.739 629.646 212.597 629.395 212.398C629.147 212.199 628.944 211.953 628.785 211.659C628.626 211.366 628.522 211.04 628.473 210.682L628.446 210.488C628.39 210.079 628.398 209.7 628.472 209.351C628.545 209.003 628.672 208.696 628.853 208.431C629.033 208.163 629.259 207.946 629.532 207.78C629.805 207.615 630.11 207.508 630.449 207.462C630.823 207.41 631.159 207.428 631.457 207.515C631.755 207.602 632.011 207.747 632.227 207.951C632.445 208.151 632.621 208.401 632.754 208.701C632.891 209.001 632.985 209.34 633.037 209.717L633.106 210.215L629.062 210.773L628.947 209.936L631.839 209.537L631.827 209.445C631.791 209.237 631.722 209.046 631.62 208.873C631.52 208.699 631.385 208.567 631.215 208.475C631.044 208.384 630.83 208.356 630.572 208.391C630.379 208.418 630.212 208.484 630.072 208.588C629.935 208.689 629.827 208.824 629.748 208.993C629.67 209.161 629.618 209.359 629.594 209.586C629.572 209.809 629.58 210.056 629.617 210.327L629.644 210.52C629.675 210.749 629.735 210.958 629.824 211.146C629.915 211.331 630.032 211.487 630.174 211.615C630.317 211.744 630.481 211.838 630.667 211.897C630.852 211.954 631.056 211.967 631.278 211.936C631.559 211.898 631.801 211.807 632.005 211.664C632.208 211.521 632.376 211.335 632.509 211.106L633.206 211.616C633.115 211.796 632.991 211.975 632.831 212.151C632.671 212.324 632.466 212.476 632.218 212.605C631.973 212.734 631.68 212.822 631.338 212.87ZM636.352 211.232C636.542 211.205 636.708 211.145 636.849 211.05C636.993 210.951 637.102 210.827 637.177 210.679C637.255 210.53 637.287 210.367 637.272 210.188L638.37 210.036C638.41 210.376 638.353 210.698 638.198 211.002C638.043 211.306 637.817 211.562 637.52 211.77C637.223 211.976 636.881 212.105 636.494 212.158C636.094 212.213 635.737 212.194 635.421 212.099C635.106 212.002 634.833 211.845 634.603 211.631C634.372 211.416 634.186 211.157 634.042 210.855C633.902 210.552 633.807 210.221 633.757 209.859L633.734 209.69C633.684 209.329 633.685 208.984 633.739 208.654C633.794 208.321 633.904 208.02 634.067 207.751C634.231 207.482 634.451 207.26 634.729 207.083C635.007 206.904 635.344 206.787 635.741 206.732C636.16 206.674 636.539 206.707 636.878 206.831C637.217 206.952 637.497 207.148 637.719 207.42C637.943 207.688 638.085 208.017 638.145 208.406L637.047 208.558C637.011 208.366 636.939 208.198 636.83 208.055C636.725 207.909 636.588 207.8 636.42 207.727C636.256 207.655 636.067 207.633 635.854 207.663C635.619 207.695 635.43 207.77 635.289 207.888C635.147 208.003 635.044 208.149 634.98 208.325C634.915 208.499 634.877 208.69 634.866 208.898C634.858 209.103 634.869 209.313 634.899 209.529L634.923 209.699C634.952 209.915 634.999 210.122 635.063 210.32C635.126 210.518 635.212 210.692 635.322 210.841C635.434 210.987 635.574 211.097 635.742 211.173C635.91 211.245 636.113 211.265 636.352 211.232ZM638.928 209.117L638.913 209.005C638.861 208.628 638.868 208.271 638.933 207.933C638.998 207.592 639.117 207.288 639.29 207.021C639.466 206.75 639.695 206.528 639.977 206.355C640.261 206.177 640.594 206.062 640.974 206.01C641.358 205.957 641.709 205.978 642.028 206.072C642.349 206.162 642.631 206.314 642.874 206.527C643.117 206.736 643.315 206.997 643.47 207.307C643.624 207.614 643.727 207.957 643.779 208.334L643.795 208.445C643.847 208.823 643.84 209.18 643.775 209.518C643.71 209.855 643.589 210.159 643.413 210.43C643.236 210.698 643.007 210.92 642.726 211.097C642.444 211.27 642.113 211.383 641.733 211.436C641.349 211.489 640.996 211.47 640.675 211.38C640.356 211.285 640.076 211.134 639.833 210.924C639.59 210.711 639.392 210.451 639.238 210.143C639.084 209.836 638.981 209.494 638.928 209.117ZM640.079 208.844L640.094 208.956C640.127 209.191 640.182 209.41 640.259 209.613C640.336 209.816 640.437 209.99 640.562 210.133C640.687 210.277 640.837 210.383 641.01 210.451C641.184 210.519 641.382 210.538 641.605 210.507C641.821 210.477 642.001 210.406 642.147 210.294C642.296 210.182 642.411 210.039 642.492 209.867C642.574 209.695 642.624 209.501 642.643 209.284C642.666 209.068 642.661 208.842 642.629 208.606L642.613 208.495C642.581 208.263 642.525 208.047 642.445 207.848C642.368 207.645 642.265 207.47 642.136 207.323C642.011 207.176 641.861 207.069 641.688 207.001C641.517 206.929 641.322 206.908 641.102 206.939C640.883 206.969 640.699 207.042 640.551 207.158C640.405 207.27 640.292 207.414 640.211 207.589C640.13 207.764 640.08 207.96 640.061 208.177C640.041 208.39 640.047 208.612 640.079 208.844ZM645.711 206.471L646.295 210.708L645.129 210.869L644.407 205.635L645.52 205.482L645.711 206.471ZM647.17 205.22L647.309 206.304C647.237 206.301 647.158 206.302 647.073 206.307C646.992 206.312 646.911 206.32 646.83 206.331C646.63 206.359 646.458 206.412 646.315 206.491C646.171 206.567 646.055 206.665 645.966 206.785C645.88 206.902 645.82 207.039 645.786 207.195C645.752 207.351 645.742 207.521 645.758 207.706L645.494 207.762C645.449 207.433 645.439 207.124 645.465 206.835C645.491 206.545 645.554 206.285 645.653 206.055C645.756 205.824 645.898 205.635 646.078 205.488C646.261 205.342 646.484 205.25 646.745 205.214C646.816 205.204 646.893 205.2 646.975 205.202C647.061 205.203 647.125 205.209 647.17 205.22ZM651.573 208.876L650.697 202.53L651.868 202.368L652.893 209.798L651.833 209.944L651.573 208.876ZM647.964 207.87L647.95 207.769C647.895 207.372 647.892 207.004 647.941 206.666C647.989 206.324 648.086 206.023 648.23 205.763C648.375 205.5 648.566 205.288 648.803 205.127C649.04 204.963 649.318 204.859 649.637 204.815C649.953 204.771 650.239 204.794 650.495 204.884C650.75 204.974 650.978 205.121 651.177 205.327C651.376 205.53 651.547 205.782 651.691 206.085C651.834 206.384 651.953 206.722 652.047 207.1L652.092 207.424C652.102 207.804 652.078 208.155 652.021 208.479C651.964 208.802 651.867 209.088 651.73 209.337C651.594 209.586 651.413 209.788 651.188 209.944C650.966 210.1 650.696 210.199 650.376 210.244C650.06 210.287 649.766 210.26 649.493 210.163C649.223 210.066 648.983 209.91 648.773 209.696C648.563 209.482 648.388 209.22 648.25 208.91C648.112 208.597 648.017 208.251 647.964 207.87ZM649.116 207.608L649.13 207.709C649.163 207.948 649.214 208.168 649.285 208.368C649.358 208.568 649.453 208.741 649.568 208.886C649.683 209.028 649.821 209.134 649.982 209.204C650.145 209.27 650.332 209.289 650.541 209.26C650.806 209.223 651.015 209.135 651.17 208.995C651.325 208.856 651.437 208.681 651.507 208.471C651.579 208.257 651.616 208.025 651.618 207.775L651.497 206.9C651.452 206.712 651.387 206.54 651.303 206.384C651.222 206.228 651.124 206.095 651.007 205.987C650.889 205.875 650.752 205.795 650.594 205.748C650.439 205.697 650.262 205.685 650.062 205.713C649.849 205.742 649.675 205.812 649.539 205.923C649.403 206.034 649.298 206.175 649.223 206.346C649.151 206.517 649.107 206.71 649.091 206.926C649.074 207.142 649.083 207.369 649.116 207.608Z" fill="#ABDDDA"/>
<path d="M656.246 191.239C656.246 191.239 648.077 190.67 647.667 192.575C646.711 197.016 654.69 200.661 657.276 200.412C659.86 200.163 658.128 190.944 656.246 191.241V191.239Z" fill="#FFB27D"/>
<path d="M613.134 182.507C613.134 182.507 620.949 180.061 621.79 181.819C623.745 185.917 616.827 191.309 614.255 191.666C611.682 192.023 611.235 182.651 613.134 182.504V182.507Z" fill="#FFB27D"/>
<path d="M663.801 130.367C663.801 130.367 667.678 131.041 669.401 133.512C669.401 133.512 656.113 156.789 656.173 156.58C656.229 156.37 660.516 133.223 663.801 130.367Z" fill="#91CECF"/>
<path d="M647.803 130.681C646.671 131.109 644.5 133.334 644.011 134.562L642.483 154.041C642.483 154.041 645.743 139.747 647.404 133.285C647.825 131.644 647.749 131.143 647.8 130.684L647.803 130.681Z" fill="#91CECF"/>
<path d="M638.895 170.701C638.895 170.701 638.564 169.249 636.654 169.419C634.744 169.589 624.011 170.115 624.011 170.115C624.011 170.115 621.943 170.081 622.132 171.409L638.895 170.701Z" fill="#C65447"/>
<rect x="666" y="154" width="8" height="1" fill="#12416D"/>
<rect x="666" y="156" width="8" height="1" fill="#E53325"/>
<rect x="666" y="158" width="8" height="1" fill="#12416D"/>
</g>
<defs>
<clipPath id="clip0_144_2394">
<rect width="944" height="364" fill="white"/>
</clipPath>
</defs>
</svg>
