<svg width="153" height="106" viewBox="0 0 153 106" fill="none" xmlns="http://www.w3.org/2000/svg">
<path d="M138.634 28.8827V5.8141C138.462 5.72252 138.29 5.63095 138.116 5.53714H134.787V5.52597H115.422V5.53714H115.406V8.99698H115.422V11.3735H115.406V14.8311H115.422V17.2189H115.406V20.6765H115.422V20.6877L113.371 20.6765V2.58655H91.641V4.87822H91.6299V8.33584H91.641V11.3735H91.6299V14.8311H91.641V17.2189H91.6299V20.6765H91.641V22.8855H91.6299V26.3431H91.641V28.5499H91.6299V32.0098H91.641V34.0893H91.6299V36.2849H91.641V36.5239H67.146V56.3136H57.9955V61.299H48.1288V52.713H30.3789V29.3898H27.6032V27.0646H27.2083V29.3898H24.9056V29.3853H13.3922V27.0646H12.9972V29.3853H9.99838V41.1139H9.76856L5.89282 41.0961V100.697H0V106H152.017V28.8827H138.634Z" fill="#EBEDEF"/>
<path d="M105.553 2.58655H91.6455V7.19447H105.553V2.58655Z" fill="white"/>
<path d="M105.553 9.67822H91.6455V14.2861H105.553V9.67822Z" fill="white"/>
<path d="M105.553 16.9172H91.6455V21.5252H105.553V16.9172Z" fill="white"/>
<path d="M105.553 24.2703H91.6455V28.8782H105.553V24.2703Z" fill="white"/>
<path d="M105.553 31.3665H91.6455V35.9744H105.553V31.3665Z" fill="white"/>
<path d="M105.553 39.1774H91.6455V43.7853H105.553V39.1774Z" fill="white"/>
<path d="M105.553 46.2668H91.6455V50.8748H105.553V46.2668Z" fill="white"/>
<path d="M105.553 53.5059H91.6455V58.1138H105.553V53.5059Z" fill="white"/>
<path d="M105.553 60.8612H91.6455V65.4691H105.553V60.8612Z" fill="white"/>
<path d="M105.553 67.9573H91.6455V72.5652H105.553V67.9573Z" fill="white"/>
<path d="M129.358 5.60864H115.45V10.2166H129.358V5.60864Z" fill="white"/>
<path d="M129.358 12.6981H115.45V17.306H129.358V12.6981Z" fill="white"/>
<path d="M129.358 19.9371H115.45V24.5451H129.358V19.9371Z" fill="white"/>
<path d="M129.358 27.2925H115.45V31.9004H129.358V27.2925Z" fill="white"/>
<path d="M129.358 34.3885H115.45V38.9965H129.358V34.3885Z" fill="white"/>
<path d="M129.358 41.7863H115.45V46.3942H129.358V41.7863Z" fill="white"/>
<path d="M129.358 48.8779H115.45V53.4858H129.358V48.8779Z" fill="white"/>
<path d="M129.358 56.1171H115.45V60.725H129.358V56.1171Z" fill="white"/>
<path d="M129.358 63.4701H115.45V68.078H129.358V63.4701Z" fill="white"/>
<path d="M129.358 70.5662H115.45V75.1741H129.358V70.5662Z" fill="white"/>
<path d="M129.358 78.7053H115.45V83.3132H129.358V78.7053Z" fill="white"/>
<path d="M129.358 85.797H115.45V90.4049H129.358V85.797Z" fill="white"/>
<path d="M129.358 93.0361H115.45V97.644H129.358V93.0361Z" fill="white"/>
<path d="M129.358 100.389H115.45V104.997H129.358V100.389Z" fill="white"/>
<path d="M72.3965 27.2924H71.707V36.6914H72.3965V27.2924Z" fill="#EBEDEF"/>
<path d="M84.4072 19.2201H83.334V37.4239H84.4072V19.2201Z" fill="#EBEDEF"/>
<path d="M94.1427 0H93.7969V2.58651H94.1427V0Z" fill="#EBEDEF"/>
<path d="M110.457 0H110.111V2.58651H110.457V0Z" fill="#EBEDEF"/>
</svg>
