<svg width="14" height="13" viewBox="0 0 14 13" fill="none" xmlns="http://www.w3.org/2000/svg">
<path d="M6.92972 12.25C10.2046 12.25 12.8594 9.7316 12.8594 6.625C12.8594 3.5184 10.2046 1 6.92972 1C3.65483 1 1 3.5184 1 6.625C1 9.7316 3.65483 12.25 6.92972 12.25Z" stroke="#307DC1" stroke-width="1.2" stroke-linecap="round" stroke-linejoin="round"/>
<path d="M6.92969 9.75V9.75625" stroke="#307DC1" stroke-width="1.2" stroke-linecap="round" stroke-linejoin="round"/>
<path d="M6.92953 7.56273C6.9174 7.35983 6.9751 7.1587 7.09393 6.98961C7.21276 6.82052 7.38629 6.69264 7.58839 6.62523C7.83604 6.53539 8.05832 6.39225 8.23774 6.20707C8.41716 6.0219 8.54882 5.79974 8.62235 5.55809C8.69588 5.31645 8.70928 5.06191 8.66149 4.81452C8.6137 4.56712 8.50603 4.33363 8.34694 4.13242C8.18786 3.93121 7.98171 3.76778 7.74473 3.65499C7.50775 3.5422 7.24641 3.48313 6.98127 3.48243C6.71613 3.48173 6.45445 3.53942 6.21681 3.65097C5.97917 3.76251 5.77207 3.92486 5.61182 4.12523" stroke="#307DC1" stroke-width="1.2" stroke-linecap="round" stroke-linejoin="round"/>
</svg>
