<svg width="13" height="14" viewBox="0 0 13 14" fill="none" xmlns="http://www.w3.org/2000/svg">
<path d="M3.63543 2.25H2.31772C1.96824 2.25 1.63307 2.3817 1.38595 2.61612C1.13883 2.85054 1 3.16848 1 3.5V11C1 11.3315 1.13883 11.6495 1.38595 11.8839C1.63307 12.1183 1.96824 12.25 2.31772 12.25H6.07123" stroke="#307DC1" stroke-width="1.2" stroke-linecap="round" stroke-linejoin="round"/>
<path d="M10.2238 6.625V3.5C10.2238 3.16848 10.085 2.85054 9.83786 2.61612C9.59074 2.3817 9.25557 2.25 8.90609 2.25H7.58838" stroke="#307DC1" stroke-width="1.2" stroke-linecap="round" stroke-linejoin="round"/>
<path d="M6.27069 1H4.95297C4.22522 1 3.63525 1.55964 3.63525 2.25C3.63525 2.94036 4.22522 3.5 4.95297 3.5H6.27069C6.99844 3.5 7.5884 2.94036 7.5884 2.25C7.5884 1.55964 6.99844 1 6.27069 1Z" stroke="#307DC1" stroke-width="1.2" stroke-linecap="round" stroke-linejoin="round"/>
<path d="M3.63525 6H6.27069" stroke="#307DC1" stroke-width="1.2" stroke-linecap="round" stroke-linejoin="round"/>
<path d="M3.63525 8.5H5.61183" stroke="#307DC1" stroke-width="1.2" stroke-linecap="round" stroke-linejoin="round"/>
<path d="M9.23552 11.625C10.1452 11.625 10.8827 10.9254 10.8827 10.0625C10.8827 9.19956 10.1452 8.5 9.23552 8.5C8.32583 8.5 7.58838 9.19956 7.58838 10.0625C7.58838 10.9254 8.32583 11.625 9.23552 11.625Z" stroke="#307DC1" stroke-width="1.2" stroke-linecap="round" stroke-linejoin="round"/>
<path d="M10.5532 11.3125L12.2004 12.875" stroke="#307DC1" stroke-width="1.2" stroke-linecap="round" stroke-linejoin="round"/>
</svg>
